<svg width="25" height="24" viewBox="0 0 25 24" fill="none" xmlns="http://www.w3.org/2000/svg">
<rect width="25" height="24" fill="#444444"/>
<g id="Desktop - 1" clip-path="url(#clip0_0_1)">
<rect width="1440" height="996" transform="translate(-517 -85)" fill="white"/>
<g id="&#209;&#136;&#208;&#176;&#208;&#191;&#208;&#186;&#208;&#176;">
<rect width="1439" height="191" transform="translate(-516 -85)" fill="#D5F4FA"/>
<g id="&#208;&#181;&#208;&#187;&#208;&#181;&#208;&#188;&#208;&#181;&#208;&#189;&#209;&#130;&#208;&#184; &#209;&#136;&#208;&#176;&#208;&#191;&#208;&#186;&#208;&#184;">
<g id="&#208;&#191;&#209;&#131;&#208;&#189;&#208;&#186;&#209;&#130;&#208;&#184; &#208;&#178;&#208;&#181;&#209;&#128;&#209;&#133;&#208;&#189;&#209;&#140;&#208;&#190;&#208;&#179;&#208;&#190; &#208;&#188;&#208;&#181;&#208;&#189;&#209;&#142;">
<path id="search icon" fill-rule="evenodd" clip-rule="evenodd" d="M16.6959 14.8654C17.8932 13.3371 18.6069 11.4118 18.6069 9.31982C18.6069 4.34926 14.5775 0.319824 9.60693 0.319824C4.63637 0.319824 0.606934 4.34926 0.606934 9.31982C0.606934 14.2904 4.63637 18.3198 9.60693 18.3198C11.7878 18.3198 13.7874 17.5441 15.3451 16.2536C15.3887 16.3251 15.442 16.3923 15.505 16.4532L22.6984 23.3997C23.0957 23.7834 23.7288 23.7723 24.1124 23.3751C24.4961 22.9778 24.485 22.3447 24.0877 21.9611L16.8943 15.0145C16.8332 14.9554 16.7665 14.9058 16.6959 14.8654ZM9.60693 16.6622C5.55183 16.6622 2.26452 13.3749 2.26452 9.31982C2.26452 5.26472 5.55183 1.97741 9.60693 1.97741C13.662 1.97741 16.9493 5.26472 16.9493 9.31982C16.9493 13.3749 13.662 16.6622 9.60693 16.6622Z" fill="#445E71"/>
</g>
</g>
</g>
</g>
<defs>
<clipPath id="clip0_0_1">
<rect width="1440" height="996" fill="white" transform="translate(-517 -85)"/>
</clipPath>
</defs>
</svg>
